<svg width="60" height="60" viewBox="0 0 60 60" fill="none" xmlns="http://www.w3.org/2000/svg">
<g id="Icons/Small Icons/Home">
<g id="Home">
<path id="Home_2" fill-rule="evenodd" clip-rule="evenodd" d="M40 49.9695H47.475L47.5 29.0295L29.995 11.0495L12.515 28.927L12.5 49.9695H20V32.4695C20 31.087 21.1175 29.9695 22.5 29.9695H37.5C38.88 29.9695 40 31.087 40 32.4695V49.9695ZM35 49.9695H25V34.9695H35V49.9695ZM51.06 25.432L31.7875 5.722C30.845 4.7595 29.155 4.7595 28.2125 5.722L8.9375 25.4345C8.025 26.372 7.5 27.682 7.5 29.0295V49.9695C7.5 52.727 9.6175 54.9695 12.22 54.9695H22.5H37.5H47.7775C50.38 54.9695 52.5 52.727 52.5 49.9695V29.0295C52.5 27.682 51.975 26.372 51.06 25.432Z" fill="#002120"/>
</g>
</g>
</svg>
